<?xml version="1.0" standalone="no"?>
<!DOCTYPE svg PUBLIC "-//W3C//DTD SVG 20010904//EN"
 "http://www.w3.org/TR/2001/REC-SVG-20010904/DTD/svg10.dtd">
<svg version="1.0" xmlns="http://www.w3.org/2000/svg"
 width="512.000000pt" height="512.000000pt" viewBox="0 0 512.000000 512.000000"
 preserveAspectRatio="xMidYMid meet">
<metadata>
Created by potrace 1.11, written by Peter Selinger 2001-2013
</metadata>
<g transform="translate(0.000000,512.000000) scale(0.100000,-0.100000)"
fill="#000000" stroke="none">
<path d="M2514 5096 c-11 -12 -38 -52 -58 -89 -33 -60 -110 -179 -137 -211 -5
-6 -18 -22 -30 -36 -47 -59 -148 -154 -199 -188 -78 -52 -166 -80 -241 -76
-183 9 -409 115 -644 302 -38 31 -73 60 -76 64 -13 20 -70 16 -95 -6 -28 -23
-32 -47 -21 -126 7 -50 17 -131 22 -170 2 -14 6 -47 9 -75 4 -27 9 -66 11 -85
3 -19 7 -51 10 -70 3 -19 7 -57 10 -85 3 -27 7 -57 10 -65 4 -14 10 -68 21
-175 3 -27 7 -61 9 -75 3 -14 8 -47 11 -75 3 -27 7 -61 10 -75 2 -14 6 -50 9
-80 3 -30 8 -66 11 -80 4 -14 8 -45 10 -70 2 -25 5 -56 7 -70 3 -14 8 -52 12
-85 3 -33 9 -71 11 -85 2 -14 7 -52 10 -85 12 -130 30 -148 149 -148 l77 1
-43 -29 c-35 -23 -88 -40 -133 -43 -7 -1 -12 -91 -7 -143 1 -17 34 -16 96 1
28 7 57 15 65 17 23 6 101 59 131 88 15 14 38 45 52 68 l26 41 83 -1 c95 -2
95 -3 51 -84 -78 -140 -273 -254 -453 -265 -25 -2 -47 -8 -50 -15 -10 -24 1
-152 13 -148 7 2 37 6 67 9 30 3 62 8 70 9 8 2 33 7 55 12 22 4 58 15 80 25
22 9 55 23 73 31 17 8 32 17 32 21 0 5 5 8 12 8 17 0 112 74 157 123 52 55 98
132 126 210 l23 62 87 1 87 1 -6 -39 c-4 -21 -10 -47 -15 -56 -55 -117 -75
-152 -91 -170 -11 -12 -20 -25 -20 -29 0 -13 -121 -126 -175 -165 -46 -32
-159 -97 -170 -98 -3 0 -20 -6 -39 -14 -51 -21 -193 -55 -261 -62 -62 -6 -96
-11 -105 -13 -3 0 -4 -35 -2 -77 l4 -75 76 5 c109 7 280 42 317 64 6 4 15 7
20 8 20 3 132 57 190 92 135 80 261 206 337 338 32 55 75 157 83 194 2 8 8 34
14 56 l11 41 78 -2 c42 -2 80 -3 84 -4 14 -2 -32 -168 -69 -248 -53 -114 -96
-174 -203 -285 -116 -120 -234 -200 -400 -271 -86 -36 -206 -73 -270 -83 -19
-3 -41 -7 -47 -9 -18 -6 -151 -18 -190 -18 l-33 1 0 -1078 0 -1079 75 0 c52 0
75 3 76 12 0 7 1 456 2 999 1 542 4 988 7 991 3 3 27 8 54 11 27 4 54 8 60 9
16 3 18 -148 20 -1154 l1 -866 78 -1 77 -1 0 52 c0 29 0 313 0 631 1 319 4
575 9 570 4 -5 23 -29 42 -54 19 -25 49 -60 66 -79 l33 -35 2 -540 3 -541 75
0 75 0 1 470 c1 259 2 473 3 477 0 3 27 -9 58 -28 31 -19 63 -34 70 -34 16 0
15 35 18 -450 1 -228 3 -421 4 -427 1 -9 23 -13 76 -13 l75 0 0 411 0 411 43
-7 c23 -4 56 -9 72 -12 59 -11 219 -9 294 4 41 7 80 12 85 10 6 -2 10 -155 10
-408 l1 -404 78 -3 77 -2 0 440 0 441 43 20 c23 11 56 29 73 40 l32 20 0 -453
c1 -249 1 -465 1 -480 l1 -28 75 0 75 0 1 58 c0 31 0 274 0 539 l0 483 27 32
c15 18 35 42 45 53 10 11 32 40 48 64 l29 44 1 -109 c0 -60 1 -345 2 -634 l2
-525 75 -3 76 -3 1 853 c1 469 3 925 5 1013 l3 160 67 -9 c50 -7 68 -14 69
-25 0 -9 1 -459 2 -1001 l2 -985 75 -3 75 -3 -1 1063 c-1 585 -2 1070 -3 1079
-1 12 -11 17 -38 17 -168 0 -406 58 -568 139 -257 128 -460 336 -554 569 -26
65 -32 86 -50 175 l-8 35 83 -1 c46 -1 86 -3 88 -6 3 -2 7 -18 10 -35 34 -190
167 -391 351 -530 120 -89 327 -182 450 -199 22 -4 47 -8 55 -10 8 -2 52 -7
98 -11 76 -6 82 -5 83 12 3 106 3 136 -1 139 -3 2 -40 6 -84 9 -311 24 -589
191 -723 434 -46 83 -77 167 -70 187 4 8 31 11 88 10 l84 -1 13 -40 c34 -100
78 -170 157 -249 65 -66 97 -89 175 -128 112 -55 199 -79 294 -81 l69 -1 0 68
c-1 37 -2 71 -2 75 -1 5 -13 9 -28 9 -142 3 -309 75 -404 175 -37 38 -104 138
-93 138 4 0 1 7 -6 15 -15 18 -16 18 85 19 l80 1 24 -40 c34 -55 96 -111 156
-140 54 -27 156 -51 177 -42 12 4 15 59 9 143 -1 6 -21 14 -45 17 -48 7 -113
35 -120 53 -3 8 18 10 67 9 84 -3 111 9 125 57 10 31 13 50 27 173 4 28 13 95
21 150 9 55 15 107 16 115 0 8 6 62 13 120 24 184 27 204 31 235 2 17 6 53 9
80 7 60 14 111 20 145 3 14 7 52 10 85 4 33 8 67 10 75 2 8 7 40 10 70 3 30 8
66 10 80 3 14 7 50 10 80 3 30 7 66 10 80 4 22 7 51 20 160 2 14 -4 38 -13 53
-28 47 -85 49 -134 5 -59 -53 -89 -76 -191 -145 -241 -163 -469 -233 -618
-190 -149 44 -326 219 -472 467 -31 52 -64 105 -74 117 -26 31 -73 35 -99 9z
m96 -298 c25 -39 50 -76 55 -82 6 -6 24 -29 40 -51 80 -106 235 -238 330 -279
22 -9 47 -21 56 -26 40 -21 175 -31 254 -18 28 5 59 10 70 12 11 2 27 6 35 9
8 2 44 15 80 27 94 33 212 93 313 160 76 50 90 55 89 30 0 -10 -13 -116 -17
-140 -14 -95 -18 -119 -20 -150 -2 -19 -6 -55 -9 -80 -4 -25 -16 -115 -27
-200 -11 -85 -22 -175 -26 -200 -3 -25 -7 -56 -8 -70 -1 -14 -6 -52 -10 -85
-11 -78 -13 -98 -14 -110 -1 -11 -2464 -16 -2474 -5 -5 5 -12 46 -22 140 -3
30 -8 62 -11 70 -4 15 -6 31 -19 155 -3 33 -8 71 -10 85 -5 24 -13 89 -20 155
-2 17 -6 41 -9 55 -3 14 -7 50 -10 80 -3 30 -10 91 -16 135 -6 44 -13 100 -16
124 -3 25 -7 48 -10 52 -14 23 19 12 70 -23 129 -89 344 -187 466 -213 64 -14
216 -14 266 -1 119 32 226 100 341 217 77 78 167 193 204 259 13 22 25 40 28
40 3 -1 26 -33 51 -72z m1163 -1443 c-1 -11 -4 -38 -7 -60 -2 -22 -5 -46 -5
-52 -1 -19 -2401 -19 -2402 0 -1 13 -6 55 -12 103 l-4 32 1216 -2 c1210 -1
1216 -1 1214 -21z m-1177 -626 l23 -46 -30 -22 -30 -22 -28 23 -28 23 30 60
c19 37 32 54 35 45 3 -8 15 -36 28 -61z m-161 -187 c6 -4 20 -19 30 -33 19
-24 20 -42 19 -375 -1 -192 -2 -355 -3 -362 -1 -10 -6 -10 -22 -2 -11 7 -23
10 -25 8 -2 -3 -15 -34 -28 -71 l-24 -67 31 -14 c63 -28 142 -51 165 -48 12 2
30 15 40 30 15 24 17 66 17 454 l1 428 32 32 32 33 32 -40 c50 -61 154 -162
217 -208 31 -23 58 -44 61 -47 26 -30 240 -136 343 -172 l67 -23 1 -90 c2
-242 -2 -288 -34 -400 -48 -165 -174 -347 -312 -450 -22 -17 -42 -32 -45 -36
-6 -7 -170 -87 -190 -92 -8 -3 -19 -6 -25 -7 -5 -1 -20 -6 -33 -11 -22 -8 -55
-16 -112 -25 -70 -11 -271 1 -320 19 -8 3 -42 15 -75 27 -165 59 -312 173
-421 326 -47 66 -106 186 -124 256 -7 23 -15 52 -18 63 -3 11 -7 110 -9 220
l-4 200 83 29 c132 46 324 152 413 228 55 47 164 157 189 191 30 39 34 41 51
29z"/>
<path d="M2500 4419 c-16 -18 -30 -35 -30 -40 0 -4 -6 -14 -13 -21 -24 -24
-114 -201 -139 -273 -34 -97 -36 -167 -5 -236 40 -92 121 -148 222 -156 78 -7
131 8 193 55 87 64 121 171 92 285 -30 114 -154 347 -213 400 -31 27 -72 22
-107 -14z m70 -203 c0 -8 4 -16 8 -18 10 -4 59 -109 83 -175 36 -104 -4 -172
-103 -178 -30 -2 -45 4 -73 29 -60 52 -53 110 31 279 36 73 54 94 54 63z"/>
<path d="M1915 4244 c-47 -17 -122 -83 -157 -139 -67 -108 -76 -230 -21 -296
49 -58 119 -69 198 -31 52 25 145 113 145 138 0 8 4 14 9 14 4 0 17 28 29 63
60 184 -41 309 -203 251z m68 -166 c-14 -67 -99 -178 -124 -162 -21 12 20 104
66 148 43 42 65 47 58 14z"/>
<path d="M3051 4232 c-49 -32 -66 -69 -65 -148 1 -117 87 -250 195 -302 94
-45 158 -32 213 42 33 43 29 163 -7 237 -79 161 -232 239 -336 171z m133 -153
c45 -36 100 -149 77 -163 -25 -16 -121 111 -121 161 0 28 10 29 44 2z"/>
<path d="M2449 1496 c-58 -17 -143 -64 -159 -89 -10 -16 -8 -23 14 -46 15 -15
24 -30 21 -33 -10 -10 92 -70 140 -83 57 -16 148 -13 199 6 57 21 126 67 126
84 0 6 11 22 25 35 24 22 24 24 8 40 -95 86 -246 121 -374 86z"/>
</g>
</svg>
