<?xml version="1.0" encoding="utf-8"?>
<!-- Generator: Adobe Illustrator 23.0.1, SVG Export Plug-In . SVG Version: 6.00 Build 0)  -->
<svg version="1.1" id="Capa_1" xmlns="http://www.w3.org/2000/svg" xmlns:xlink="http://www.w3.org/1999/xlink" x="0px" y="0px"
	 viewBox="0 0 284.93 284.93" style="enable-background:new 0 0 284.93 284.93;" xml:space="preserve">
<g>
	<path d="M282.08,76.51l-14.27-14.27c-1.9-1.91-4.09-2.86-6.57-2.86c-2.47,0-4.66,0.95-6.56,2.86l-112.21,112.2L30.26,62.24
		c-1.9-1.91-4.09-2.86-6.57-2.86c-2.48,0-4.67,0.95-6.57,2.86L2.86,76.51C0.95,78.42,0,80.61,0,83.08c0,2.47,0.95,4.66,2.86,6.57
		L135.9,222.69c1.9,1.9,4.09,2.85,6.57,2.85s4.66-0.95,6.56-2.85L282.08,89.65c1.9-1.9,2.85-4.09,2.85-6.57
		C284.93,80.61,283.98,78.42,282.08,76.51z"/>
</g>
</svg>
