<?xml version="1.0" encoding="utf-8"?>
<!-- Generator: Adobe Illustrator 23.0.1, SVG Export Plug-In . SVG Version: 6.00 Build 0)  -->
<svg version="1.1" id="Capa_1" xmlns="http://www.w3.org/2000/svg" xmlns:xlink="http://www.w3.org/1999/xlink" x="0px" y="0px"
	 viewBox="0 0 480 480" style="enable-background:new 0 0 480 480;" xml:space="preserve">
<style type="text/css">
	.st0{fill:#9B3736;}
</style>
<g>
	<g>
		<rect x="208" y="392" class="st0" width="16" height="16"/>
	</g>
</g>
<g>
	<g>
		<rect x="256" y="392" class="st0" width="16" height="16"/>
	</g>
</g>
<g>
	<g>
		<rect x="208" y="432" class="st0" width="16" height="16"/>
	</g>
</g>
<g>
	<g>
		<rect x="256" y="432" class="st0" width="16" height="16"/>
	</g>
</g>
<g>
	<g>
		<path class="st0" d="M318.7,288h-12.3c23-19.1,37.6-47.9,37.6-80c0-19.7-5.6-38.7-16-55.3V88.9c14.9-7.4,24-19.6,24-32.9
			c0-22.4-24.6-40-56-40c-5.2,0-10.4,0.5-15.4,1.5C270.1,6.3,255.5,0,240,0s-30.1,6.3-40.6,17.5c-5-1-10.1-1.5-15.4-1.5
			c-31.4,0-56,17.6-56,40c0,13.3,9.1,25.5,24,32.9v63.8c-10.4,16.6-16,35.6-16,55.3c0,32.1,14.7,60.9,37.6,80h-12.3
			C94.4,288,40,342.4,40,409.3V472c0,4.4,3.6,8,8,8h384c4.4,0,8-3.6,8-8v-62.7C440,342.4,385.6,288,318.7,288z M144,56
			c0-13,18.3-24,40-24c5.6,0,11,0.7,16.1,2.1c3.1,0.8,6.4-0.2,8.4-2.8C216.2,21.6,227.7,16,240,16s23.8,5.6,31.4,15.4
			c2,2.5,5.3,3.6,8.4,2.8C285,32.7,290.4,32,296,32c21.7,0,40,11,40,24c0,8-7.2,15.7-18.9,20.2c-3.1,1.2-5.1,4.2-5.1,7.5V152h-24V96
			h-16v56h-24V96h-16v56h-24V96h-16v56h-24V83.7c0-3.3-2-6.3-5.1-7.5C151.2,71.7,144,64,144,56z M152,208c0-14,3.3-27.7,9.6-40
			h156.8c6.3,12.3,9.6,26,9.6,40c0,29.6-14.7,55.7-37.1,71.7c-1.4,1-2.9,2-4.3,2.9c-0.7,0.4-1.4,0.9-2.1,1.3
			c-1.4,0.8-2.8,1.6-4.2,2.4c-0.9,0.5-1.9,0.9-2.9,1.4c-1.3,0.6-2.6,1.2-3.9,1.8c-2.2,0.9-4.4,1.7-6.7,2.5c-0.9,0.3-1.8,0.5-2.7,0.8
			c-1.7,0.5-3.4,0.9-5.1,1.3c-1,0.2-1.9,0.4-2.9,0.6c-1.8,0.3-3.6,0.6-5.4,0.8c-0.9,0.1-1.7,0.2-2.6,0.3c-2.7,0.2-5.4,0.4-8.1,0.4
			s-5.4-0.2-8.1-0.4c-0.9-0.1-1.7-0.2-2.6-0.3c-1.8-0.2-3.6-0.5-5.4-0.8c-1-0.2-1.9-0.4-2.9-0.6c-1.7-0.4-3.4-0.8-5.1-1.3
			c-0.9-0.3-1.8-0.5-2.7-0.8c-2.3-0.7-4.5-1.6-6.7-2.5c-1.3-0.6-2.6-1.2-3.9-1.8c-1-0.4-1.9-0.9-2.9-1.4c-1.4-0.7-2.8-1.5-4.2-2.4
			c-0.7-0.4-1.4-0.8-2.1-1.3c-1.5-0.9-2.9-1.9-4.3-2.9C166.7,263.7,152,237.6,152,208z M288,300.2v20.5
			c-10.4,1.5-24.7,5.8-37.4,17.4c-4,3.7-7.6,7.8-10.6,12.4c-3-4.6-6.6-8.7-10.6-12.4c-12.7-11.6-27-15.9-37.4-17.4v-20.5
			c0.3,0.1,0.6,0.2,0.8,0.4c3.2,1.6,6.4,3.1,9.8,4.4c0.6,0.2,1.2,0.4,1.8,0.7c3.5,1.3,7.1,2.4,10.8,3.3c0.1,0,0.1,0,0.2,0
			c7.9,1.9,16.1,3.1,24.6,3.1s16.7-1.1,24.6-3.1c0.1,0,0.1,0,0.2,0c3.7-0.9,7.3-2,10.8-3.3c0.6-0.2,1.2-0.4,1.8-0.7
			c3.3-1.3,6.6-2.7,9.8-4.4C287.4,300.4,287.7,300.3,288,300.2z M176,400v64H56v-54.7C56,351.2,103.2,304,161.3,304H176v24
			c0,4.3,3.4,7.8,7.7,8c7.6,0.3,22.4,2.4,34.9,13.9c3.2,3,6.1,6.4,8.5,10.1H216C193.9,360,176,377.9,176,400z M424,464H192v-64
			c0-13.2,10.8-24,24-24h24c3.4,0,6.4-2.1,7.5-5.2c3-8,7.8-15.2,13.9-20.9c12.5-11.5,27.2-13.6,34.9-13.9c4.3-0.2,7.7-3.7,7.7-8v-24
			h14.7c58.1,0,105.3,47.2,105.3,105.3V464z"/>
	</g>
</g>
<g>
	<g>
		<path class="st0" d="M282.6,242.1c-1.3,1.2-8.2,6.9-17.8,6c-11.7-1.2-17.6-11.5-17.8-12c-2.8-5.1-11.1-5.1-14,0
			c-0.2,0.4-6.1,10.8-17.8,12c-9.5,1-16.5-4.8-17.8-6l-10.7,11.9c2.8,2.5,12.5,10.2,26.3,10.2c1.3,0,2.5-0.1,3.9-0.2
			c10.6-1.1,18.2-6.3,23.2-11.2c5,4.9,12.6,10.1,23.2,11.2c15.9,1.6,27.1-7.3,30.2-10L282.6,242.1z"/>
	</g>
</g>
</svg>
