<?xml version="1.0" encoding="utf-8"?>
<!-- Generator: Adobe Illustrator 23.0.1, SVG Export Plug-In . SVG Version: 6.00 Build 0)  -->
<svg version="1.1" id="Слой_1" xmlns="http://www.w3.org/2000/svg" xmlns:xlink="http://www.w3.org/1999/xlink" x="0px" y="0px"
	 viewBox="0 0 76 76" style="enable-background:new 0 0 76 76;" xml:space="preserve">
<style type="text/css">
	.st0{fill:#9B3736;}
</style>
<g>
	<g>
		<path class="st0" d="M53.82,25.61L53,22.94c-1.03-3.04-4.34-4.67-7.38-3.63c-1.71,0.58-3.05,1.92-3.63,3.63l-0.81,2.68
			c-0.68,2.26-0.83,4.64-0.42,6.97c0.37,1.96,1.61,3.64,3.37,4.57l-0.91,20.36c-0.12,1.14,0.25,2.27,1.01,3.12
			c1.65,1.8,4.45,1.93,6.25,0.28c0.1-0.09,0.19-0.18,0.28-0.28c0.75-0.82,1.12-1.92,1.01-3.03l-0.92-20.45
			c1.76-0.93,3-2.61,3.37-4.56C54.65,30.26,54.5,27.87,53.82,25.61z M51.74,32.14c-0.27,1.41-1.28,2.56-2.63,3.03
			c-0.51,0.19-0.84,0.69-0.82,1.24l0.96,21.38c0.04,0.42-0.09,0.84-0.38,1.15c-0.76,0.76-1.99,0.76-2.75,0
			c-0.3-0.34-0.44-0.79-0.37-1.23l0.96-21.3c0.02-0.55-0.31-1.05-0.82-1.24c-1.35-0.47-2.35-1.62-2.63-3.03
			c-0.34-1.93-0.22-3.91,0.35-5.78l0.81-2.68c0.63-1.7,2.52-2.57,4.22-1.94c0.9,0.33,1.61,1.04,1.94,1.94l0.81,2.68
			C51.96,28.23,52.08,30.21,51.74,32.14z"/>
	</g>
</g>
<g>
	<g>
		<path class="st0" d="M34.2,19c-0.7,0-1.27,0.57-1.27,1.27v10.88l-3.43,3.43c-0.25,0.25-0.39,0.6-0.37,0.96l1.11,22.17
			c0.03,0.48-0.15,0.95-0.48,1.29c-0.69,0.7-1.82,0.7-2.52,0.01c0,0-0.01-0.01-0.01-0.01c-0.33-0.35-0.51-0.81-0.48-1.29l1.12-22.17
			c0.02-0.36-0.12-0.71-0.37-0.96l-3.43-3.43V20.27c0-0.7-0.57-1.27-1.27-1.27c-0.7,0-1.27,0.57-1.27,1.27v11.4
			c0,0.34,0.13,0.66,0.37,0.9l3.4,3.4l-1.08,21.61c-0.11,2.36,1.71,4.37,4.07,4.48s4.37-1.71,4.48-4.07c0.01-0.14,0.01-0.28,0-0.42
			l-1.08-21.61l3.4-3.4c0.24-0.24,0.37-0.56,0.37-0.9v-11.4C35.47,19.57,34.9,19,34.2,19z"/>
	</g>
</g>
<g>
	<g>
		<path class="st0" d="M26.6,19c-0.7,0-1.27,0.57-1.27,1.27V30.4c0,0.7,0.57,1.27,1.27,1.27s1.27-0.57,1.27-1.27V20.27
			C27.87,19.57,27.3,19,26.6,19z"/>
	</g>
</g>
<g>
	<g>
		<path class="st0" d="M30.4,19c-0.7,0-1.27,0.57-1.27,1.27V30.4c0,0.7,0.57,1.27,1.27,1.27s1.27-0.57,1.27-1.27V20.27
			C31.67,19.57,31.1,19,30.4,19z"/>
	</g>
</g>
<g>
	<g>
		<path class="st0" d="M38,0C17.01,0,0,17.01,0,38s17.01,38,38,38s38-17.01,38-38C75.98,17.02,58.98,0.02,38,0z M38,73.47
			C18.41,73.47,2.53,57.59,2.53,38S18.41,2.53,38,2.53S73.47,18.41,73.47,38C73.44,57.58,57.58,73.44,38,73.47z"/>
	</g>
</g>
<g>
	<g>
		<path class="st0" d="M42.11,61.78c-0.07-0.7-0.69-1.21-1.38-1.14c-0.02,0-0.03,0-0.05,0.01l0.01,0c-1.78,0.21-3.58,0.21-5.37,0
			c-0.7-0.08-1.32,0.42-1.41,1.11c-0.08,0.7,0.42,1.32,1.11,1.41c1.98,0.23,3.98,0.23,5.95,0C41.67,63.09,42.18,62.47,42.11,61.78z"
			/>
	</g>
</g>
<g>
	<g>
		<path class="st0" d="M57.38,21.68c-0.45-0.54-1.25-0.61-1.78-0.16c0,0,0,0-0.01,0c-0.53,0.45-0.6,1.25-0.15,1.78
			c7.64,9.07,7.05,22.47-1.34,30.84c-0.5,0.49-0.5,1.3,0,1.79c0.49,0.5,1.3,0.5,1.79,0C65.21,46.65,65.87,31.75,57.38,21.68z"/>
	</g>
</g>
<g>
	<g>
		<g>
			<path class="st0" d="M29.51,16.74C29.51,16.74,29.51,16.74,29.51,16.74C29.51,16.74,29.51,16.74,29.51,16.74L29.51,16.74z"/>
			<path class="st0" d="M43.97,13.37c-4.95-1.19-10.14-0.87-14.91,0.92c-0.65,0.25-0.99,0.98-0.74,1.63
				c0.19,0.49,0.66,0.82,1.18,0.82c0.15,0,0.3-0.03,0.44-0.08c4.29-1.61,8.97-1.89,13.43-0.82c0.68,0.16,1.36-0.25,1.53-0.93
				C45.07,14.22,44.65,13.54,43.97,13.37z"/>
		</g>
	</g>
</g>
<g>
	<g>
		<path class="st0" d="M21.85,54.09C17.58,49.82,15.19,44.03,15.2,38c-0.01-4.82,1.51-9.52,4.36-13.41
			c0.42-0.56,0.31-1.35-0.25-1.77c-0.56-0.42-1.35-0.31-1.77,0.25c-0.01,0.01-0.01,0.02-0.02,0.03
			c-7.32,10.07-6.25,23.97,2.54,32.78c0.5,0.5,1.3,0.5,1.79,0C22.34,55.39,22.34,54.58,21.85,54.09z"/>
	</g>
</g>
</svg>
