<?xml version="1.0" encoding="utf-8"?>
<!-- Generator: Adobe Illustrator 23.0.1, SVG Export Plug-In . SVG Version: 6.00 Build 0)  -->
<svg version="1.1" id="Слой_1" xmlns="http://www.w3.org/2000/svg" xmlns:xlink="http://www.w3.org/1999/xlink" x="0px" y="0px"
	 viewBox="0 0 76 83" style="enable-background:new 0 0 76 83;" xml:space="preserve">
<style type="text/css">
	.st0{fill:#9B3736;}
</style>
<g>
	<path class="st0" d="M42.28,18.18c-0.02-0.11-0.03-0.22-0.05-0.32c-0.11-0.57-0.3-1.16-0.58-1.84c-0.67-1.62-1.49-3.12-2.44-4.46
		c-0.06-0.09-0.13-0.18-0.2-0.27l-0.07-0.1c-0.23-0.3-0.58-0.47-0.95-0.48c-0.37-0.01-0.73,0.16-0.97,0.45l-0.03,0.04
		c-0.04,0.04-0.07,0.08-0.1,0.12c-0.49,0.64-0.89,1.3-1.19,1.81c-0.7,1.22-1.23,2.32-1.62,3.38c-0.21,0.58-0.35,1.07-0.42,1.55
		c-0.01,0.06-0.02,0.12-0.03,0.18l-0.01,0.07c-0.01,0.06-0.01,0.12-0.01,0.18v0.38c0,0.06,0.01,0.13,0.01,0.19l0.02,0.12
		c0.02,0.11,0.03,0.24,0.06,0.37c0.36,1.73,1.8,3.07,3.58,3.34c0.07,0.01,0.14,0.02,0.21,0.03l0.09,0.01
		c0.05,0.01,0.11,0.01,0.17,0.01h0.42c0.06,0,0.12,0,0.18-0.01c0.04-0.01,0.08-0.01,0.13-0.02c0.12-0.02,0.25-0.03,0.39-0.06
		c1.79-0.37,3.16-1.81,3.41-3.58c0.01-0.06,0.02-0.11,0.02-0.17l0.01-0.07c0.01-0.05,0.01-0.11,0.01-0.16v-0.38
		c0-0.06,0-0.13-0.02-0.19L42.28,18.18z M39.85,18.91c-0.11,0.74-0.71,1.37-1.48,1.53c-0.08,0.02-0.15,0.03-0.23,0.04
		c-0.02,0-0.04,0.01-0.07,0.01h-0.25l-0.01,0c-0.06-0.01-0.12-0.02-0.17-0.02c-0.76-0.11-1.4-0.7-1.55-1.42
		c-0.02-0.07-0.03-0.15-0.04-0.22c0-0.02-0.01-0.04-0.01-0.05v-0.2c0.01-0.04,0.01-0.09,0.02-0.13c0.05-0.31,0.15-0.66,0.3-1.08
		c0.35-0.94,0.81-1.89,1.45-3c0.04-0.08,0.09-0.16,0.14-0.24c0.54,0.89,1.02,1.85,1.44,2.85c0.22,0.53,0.36,0.96,0.44,1.37
		c0.01,0.07,0.02,0.14,0.03,0.21l0.01,0.24L39.85,18.91z"/>
	<path class="st0" d="M29.98,14.1c-1.45-0.88-3.55,0.03-4.89,2.13c0,0,0,0,0,0c-0.8,1.25-1.13,2.65-0.88,3.73
		c0.16,0.69,0.53,1.23,1.08,1.56c0.37,0.23,0.79,0.34,1.22,0.34c1.26,0,2.67-0.9,3.67-2.46c0.8-1.25,1.13-2.65,0.88-3.73
		C30.9,14.97,30.52,14.43,29.98,14.1z M28.12,18.07c-0.58,0.9-1.26,1.28-1.54,1.33c-0.06-0.27,0-1,0.56-1.86l0,0
		c0.58-0.9,1.26-1.28,1.54-1.33C28.74,16.48,28.68,17.21,28.12,18.07z"/>
	<path class="st0" d="M45.93,14.1c-0.55,0.33-0.92,0.87-1.08,1.56c-0.25,1.09,0.08,2.49,0.88,3.73c1,1.56,2.42,2.46,3.67,2.46
		c0.43,0,0.85-0.11,1.22-0.34c0.55-0.33,0.92-0.87,1.08-1.56c0.25-1.09-0.08-2.49-0.88-3.73C49.49,14.13,47.38,13.21,45.93,14.1z
		 M47.23,16.21c0.28,0.05,0.96,0.43,1.54,1.33c0.56,0.87,0.62,1.6,0.56,1.86c-0.28-0.05-0.96-0.43-1.54-1.33
		C47.23,17.21,47.17,16.48,47.23,16.21z"/>
	<path class="st0" d="M33.36,59.91l0.88,0.88l-0.13,0.13c1.04,1.04,2.41,1.56,3.78,1.56c1.37,0,2.74-0.52,3.78-1.56l-0.13-0.13
		l0.88-0.88C39.93,57.41,35.86,57.41,33.36,59.91z"/>
	<path class="st0" d="M62.29,4.04c-0.46-0.24-1.01-0.16-1.39,0.19c-0.06,0.06-6.49,5.99-12.04,5.84c-5.16-0.14-9.6-8.93-9.78-9.31
		L39.04,0.7c-0.2-0.43-0.64-0.71-1.12-0.7c-0.48,0.01-0.91,0.29-1.1,0.73c-0.66,1.5-5,9.13-9.77,9.26
		c-5.53,0.15-11.98-5.78-12.04-5.84c-0.38-0.35-0.93-0.43-1.39-0.19c-0.46,0.23-0.72,0.73-0.65,1.24l3.4,26.5
		c0.08,0.61,0.6,1.07,1.21,1.07l2.23,0c-0.69,0.71-1.76,1.18-2.97,1.19l0.03,2.48c2.7-0.03,4.99-1.56,5.85-3.67l2.9,0
		c-0.98,3.24-4.53,5.67-8.75,5.71l0.03,2.5c3.04-0.03,5.9-1.06,8.05-2.9c1.71-1.46,2.83-3.3,3.25-5.31l2.94,0
		c-1.05,5.77-7.05,10.26-14.27,10.34l0.03,2.5c4.49-0.05,8.72-1.56,11.89-4.27c2.73-2.33,4.43-5.32,4.89-8.56l2.82,0
		c-1.08,8.25-9.47,14.77-19.63,14.87l0.02,1.95V82.3h2.44V50.02c0.74-0.08,1.47-0.18,2.2-0.32v3.11c0,0.76,0.05,1.51,0.15,2.25V82.3
		h2.44V61.82c0.7,1.11,1.52,2.12,2.44,3.03V82.3H29V66.83c0.77,0.51,1.59,0.96,2.44,1.34V82.3h2.44V69.02
		c1.3,0.34,2.66,0.52,4.06,0.52c1.41,0,2.78-0.18,4.09-0.52V82.3h2.44V68.16c0.86-0.38,1.67-0.83,2.44-1.34V82.3h2.44V64.82
		c0.93-0.91,1.75-1.94,2.44-3.05V82.3h2.44V54.83c0.08-0.66,0.12-1.34,0.12-2.02V49.7c0.74,0.14,1.49,0.25,2.26,0.32V82.3h2.44
		V48.07h-0.03l0-0.41c-10.16-0.1-18.54-6.62-19.63-14.87l2.82,0c0.46,3.23,2.16,6.22,4.89,8.55c3.17,2.71,7.4,4.23,11.89,4.27
		l0.03-2.5c-7.22-0.07-13.21-4.56-14.27-10.32l2.95,0c0.42,2,1.54,3.83,3.24,5.29c2.15,1.84,5.01,2.87,8.05,2.9l0.03-2.5
		c-4.21-0.04-7.75-2.46-8.74-5.69l2.9,0c0.87,2.1,3.16,3.61,5.84,3.64l0.03-2.48c-1.19-0.01-2.24-0.46-2.93-1.15l2.2,0c0,0,0,0,0,0
		c0.61,0,1.13-0.46,1.21-1.07l3.39-26.46C63.01,4.77,62.75,4.28,62.29,4.04z M40.24,41.19c0.89,1.2,1.93,2.32,3.14,3.35
		c2.42,2.06,5.29,3.6,8.44,4.54v5.38c-0.27,2.42-1.14,4.65-2.44,6.54v-0.04c-2.5,3.71-6.69,6.16-11.41,6.16
		c-3.1,0-5.97-1.05-8.28-2.82c-0.23-0.17-0.46-0.36-0.68-0.55v-0.01c-0.93-0.81-1.75-1.74-2.44-2.77v0.07
		c-1.28-1.84-2.14-4.01-2.44-6.35v-5.62c3.14-0.94,6.01-2.47,8.42-4.53c1.2-1.03,2.25-2.15,3.14-3.35c0.47,0.35,0.84,0.71,1.07,1.06
		v11.75l-0.81-0.29L35.1,56l2.45,0.87c0.13,0.05,0.27,0.07,0.41,0.07c0.25,0,0.5-0.08,0.7-0.22c0.32-0.23,0.52-0.6,0.52-1V42.25
		C39.41,41.91,39.77,41.54,40.24,41.19z M36.99,39.12c0.37-0.67,0.69-1.36,0.96-2.06c0.27,0.7,0.6,1.39,0.97,2.07
		c-0.36,0.25-0.68,0.52-0.96,0.79C37.68,39.65,37.35,39.38,36.99,39.12z M57.27,30.37l-38.62-0.04l-0.31-2.41h39.24L57.27,30.37z
		 M57.89,25.47H18.03L15.78,7.92c2.6,1.91,6.9,4.51,11.07,4.51c0.09,0,0.18,0,0.27,0c5.05-0.14,8.99-5.58,10.82-8.66
		c1.88,3.16,5.84,8.61,10.85,8.74c4.26,0.11,8.69-2.56,11.34-4.51L57.89,25.47z"/>
</g>
</svg>
