<?xml version="1.0" encoding="utf-8"?>
<!-- Generator: Adobe Illustrator 23.0.1, SVG Export Plug-In . SVG Version: 6.00 Build 0)  -->
<svg version="1.1" id="Слой_1" xmlns="http://www.w3.org/2000/svg" xmlns:xlink="http://www.w3.org/1999/xlink" x="0px" y="0px"
	 viewBox="0 0 340 425" style="enable-background:new 0 0 340 425;" xml:space="preserve">
<style type="text/css">
	.st0{fill:#63191E;}
	.st1{fill:#63191E;stroke:#63191E;stroke-width:0.768;stroke-miterlimit:10;}
</style>
<g>
	<path class="st0" d="M177.38,57.38c-0.05-0.33-0.1-0.67-0.17-1c-0.35-1.77-0.92-3.58-1.8-5.68c-2.09-5-4.63-9.64-7.55-13.8
		c-0.2-0.28-0.41-0.56-0.63-0.84l-0.23-0.3c-0.7-0.92-1.78-1.46-2.94-1.48c-1.14-0.02-2.26,0.49-2.99,1.38l-0.1,0.13
		c-0.11,0.13-0.21,0.25-0.31,0.38c-1.52,1.97-2.76,4.03-3.67,5.61c-2.17,3.76-3.81,7.17-5.02,10.44c-0.66,1.8-1.08,3.32-1.31,4.78
		c-0.03,0.18-0.06,0.37-0.08,0.55l-0.03,0.21c-0.03,0.18-0.04,0.37-0.04,0.55v1.18c0,0.2,0.02,0.39,0.05,0.59l0.06,0.37
		c0.05,0.34,0.11,0.73,0.2,1.16c1.13,5.35,5.58,9.49,11.09,10.31c0.22,0.03,0.44,0.06,0.66,0.09l0.28,0.04
		c0.17,0.02,0.34,0.03,0.51,0.03h1.29c0.19,0,0.38-0.01,0.57-0.04c0.13-0.02,0.26-0.04,0.39-0.06c0.36-0.05,0.76-0.1,1.2-0.19
		c5.53-1.13,9.76-5.58,10.54-11.07c0.03-0.18,0.05-0.35,0.07-0.53l0.03-0.2c0.02-0.17,0.03-0.33,0.03-0.5v-1.18
		c0-0.2-0.02-0.4-0.05-0.59L177.38,57.38z M169.86,59.65c-0.33,2.3-2.21,4.25-4.58,4.73c-0.23,0.05-0.47,0.08-0.71,0.11
		c-0.07,0.01-0.14,0.02-0.21,0.03h-0.77l-0.05-0.01c-0.18-0.02-0.36-0.05-0.54-0.07c-2.36-0.35-4.33-2.16-4.8-4.4
		c-0.05-0.23-0.08-0.46-0.11-0.68c-0.01-0.06-0.02-0.11-0.02-0.17v-0.62c0.02-0.14,0.04-0.27,0.06-0.41
		c0.15-0.96,0.45-2.02,0.94-3.35c1.07-2.9,2.49-5.86,4.47-9.28c0.14-0.24,0.28-0.49,0.44-0.75c1.66,2.75,3.15,5.7,4.44,8.81
		c0.68,1.63,1.11,2.97,1.36,4.23c0.04,0.21,0.07,0.43,0.11,0.65l0.02,0.75L169.86,59.65z"/>
	<path class="st0" d="M139.3,44.77c-4.48-2.73-10.99,0.1-15.15,6.57c0,0,0,0,0,0c-2.48,3.86-3.49,8.17-2.71,11.54
		c0.49,2.13,1.65,3.8,3.34,4.83c1.15,0.7,2.44,1.04,3.78,1.04c3.89,0,8.28-2.79,11.36-7.6c2.48-3.86,3.49-8.17,2.71-11.54
		C142.15,47.47,141,45.8,139.3,44.77z M133.56,57.06c-1.78,2.78-3.89,3.95-4.76,4.11c-0.2-0.83,0.01-3.08,1.72-5.76l0,0
		c1.78-2.78,3.89-3.95,4.76-4.11C135.48,52.13,135.28,54.38,133.56,57.06z"/>
	<path class="st0" d="M188.69,44.77c-1.7,1.03-2.85,2.7-3.34,4.83c-0.78,3.37,0.24,7.68,2.71,11.54c3.09,4.81,7.47,7.6,11.36,7.6
		c1.35,0,2.63-0.33,3.78-1.04c1.7-1.03,2.85-2.7,3.34-4.83c0.78-3.37-0.24-7.68-2.71-11.54C199.68,44.86,193.17,42.04,188.69,44.77z
		 M192.71,51.3c0.87,0.16,2.98,1.34,4.76,4.11c1.72,2.68,1.92,4.93,1.72,5.76c-0.87-0.16-2.98-1.34-4.76-4.11
		C192.71,54.38,192.51,52.13,192.71,51.3z"/>
	<path class="st0" d="M149.79,186.36l2.73,2.73l-0.41,0.41c3.23,3.22,7.46,4.83,11.7,4.83c4.24,0,8.48-1.61,11.7-4.83l-0.41-0.41
		l2.73-2.73C170.1,178.63,157.52,178.63,149.79,186.36z"/>
	<path class="st0" d="M239.31,13.69c-1.42-0.73-3.14-0.49-4.31,0.6c-0.2,0.19-20.09,18.51-37.26,18.04
		c-15.96-0.43-29.7-27.61-30.28-28.77l-0.1-0.2c-0.63-1.34-1.99-2.19-3.47-2.17c-1.48,0.02-2.82,0.9-3.41,2.26
		c-2.03,4.63-15.46,28.22-30.22,28.62c-17.11,0.46-37.07-17.86-37.26-18.04c-1.17-1.09-2.89-1.32-4.31-0.6
		c-1.42,0.73-2.23,2.26-2.03,3.84l10.51,81.9c0.24,1.88,1.85,3.3,3.75,3.3l6.9,0.01c-2.13,2.2-5.45,3.65-9.19,3.68l0.08,7.68
		c8.34-0.09,15.46-4.82,18.11-11.35l8.96,0.01c-3.03,10-14.02,17.53-27.08,17.66l0.08,7.72c9.41-0.1,18.26-3.28,24.93-8.96
		c5.3-4.52,8.76-10.21,10.06-16.41l9.11,0.01c-3.25,17.84-21.82,31.72-44.17,31.95l0.08,7.72c13.9-0.14,26.97-4.83,36.79-13.2
		c8.46-7.21,13.71-16.45,15.14-26.45l8.74,0.01c-3.35,25.49-29.31,45.63-60.75,45.95l0.06,6.03v101.04h7.57v-99.77
		c2.29-0.23,4.56-0.56,6.8-0.98v9.6c0,2.36,0.16,4.68,0.46,6.96v84.2h7.57v-63.29c2.16,3.42,4.7,6.56,7.57,9.37v53.92h7.57v-47.79
		c2.39,1.59,4.92,2.97,7.57,4.14v43.66h7.57v-41.03c4.02,1.04,8.23,1.6,12.57,1.6c4.37,0,8.61-0.56,12.65-1.62v41.05h7.57v-43.7
		c2.65-1.17,5.18-2.56,7.57-4.16v47.85h7.57v-54.01c2.87-2.82,5.41-5.99,7.57-9.42v63.43h7.57v-84.9c0.24-2.05,0.37-4.14,0.37-6.25
		v-9.6c2.3,0.43,4.62,0.77,6.98,1v99.76h7.57V149.77h-0.11l0.01-1.28c-31.43-0.32-57.39-20.46-60.74-45.94l8.74,0.01
		c1.43,9.99,6.68,19.22,15.13,26.42c9.82,8.37,22.89,13.06,36.79,13.2l0.08-7.72c-22.33-0.23-40.89-14.08-44.16-31.9l9.12,0.01
		c1.31,6.17,4.76,11.84,10.04,16.34c6.66,5.68,15.52,8.86,24.93,8.96l0.08-7.72c-13.03-0.13-23.99-7.61-27.06-17.58l8.97,0.01
		c2.69,6.48,9.78,11.17,18.07,11.25l0.08-7.68c-3.67-0.04-6.94-1.43-9.07-3.56l6.8,0.01c0,0,0,0,0,0c1.9,0,3.51-1.41,3.75-3.3
		l10.5-81.78C241.53,15.95,240.72,14.42,239.31,13.69z M171.08,128.5c2.74,3.7,5.99,7.17,9.7,10.34
		c7.48,6.37,16.39,11.12,26.11,14.02v16.63c-0.85,7.46-3.52,14.36-7.57,20.22v-0.12c-7.74,11.47-20.7,19.03-35.32,19.03
		c-9.59,0-18.46-3.25-25.62-8.73c-0.72-0.54-1.42-1.1-2.11-1.69v-0.04c-2.87-2.5-5.42-5.37-7.57-8.55v0.21
		c-3.96-5.7-6.63-12.39-7.57-19.64v-17.35c9.7-2.91,18.59-7.65,26.05-14.01c3.73-3.18,6.98-6.65,9.72-10.37
		c1.47,1.08,2.6,2.2,3.3,3.27v36.32l-2.52-0.9l-2.54,7.12l7.57,2.7c0.41,0.15,0.84,0.22,1.27,0.22c0.77,0,1.53-0.23,2.18-0.69
		c1.01-0.71,1.6-1.86,1.6-3.09v-41.66C168.49,130.71,169.62,129.58,171.08,128.5z M161.02,122.1c1.14-2.07,2.13-4.19,2.98-6.36
		c0.85,2.18,1.85,4.31,2.99,6.39c-1.1,0.79-2.09,1.61-2.96,2.46C163.14,123.73,162.14,122.9,161.02,122.1z M223.75,95.05
		l-119.5-0.13l-0.96-7.45h121.43L223.75,95.05z M225.7,79.91H102.33l-6.96-54.22c8.04,5.91,21.34,13.95,34.26,13.95
		c0.28,0,0.55,0,0.83-0.01c15.62-0.42,27.83-17.25,33.49-26.76c5.83,9.78,18.09,26.6,33.58,27.02c13.17,0.35,26.88-7.9,35.09-13.94
		L225.7,79.91z"/>
</g>
<path class="st0" d="M333.83,334.99h-1.97v-1.96c0-2.7-2.21-4.91-4.92-4.91c-2.7,0-4.92,2.21-4.92,4.91v1.96h-1.97
	c-2.7,0-4.92,2.21-4.92,4.91c0,2.7,2.21,4.91,4.92,4.91h1.97v1.96c0,2.7,2.21,4.91,4.92,4.91c2.7,0,4.92-2.21,4.92-4.91v-1.96h1.97
	c2.7,0,4.92-2.21,4.92-4.91C338.75,337.2,336.53,334.99,333.83,334.99z"/>
<path class="st0" d="M19.42,334.99h-1.97v-1.96c0-2.7-2.21-4.91-4.92-4.91h0c-2.7,0-4.92,2.21-4.92,4.91v1.96H5.66
	c-2.7,0-4.92,2.21-4.92,4.91c0,2.7,2.21,4.91,4.92,4.91h1.97v1.96c0,2.7,2.21,4.91,4.92,4.91h0c2.7,0,4.92-2.21,4.92-4.91v-1.96
	h1.97c2.7,0,4.92-2.21,4.92-4.91C24.34,337.2,22.13,334.99,19.42,334.99z"/>
<g>
	<path class="st0" d="M53.47,405.89v16.61h-3.35v-19.86h8.51v3.26H53.47z"/>
	<path class="st0" d="M71.5,410.84c0,0.96-0.12,1.76-0.35,2.4s-0.56,1.16-0.99,1.54c-0.43,0.39-0.95,0.66-1.56,0.82
		c-0.61,0.16-1.3,0.24-2.06,0.24H65.3v6.65h-3.35v-19.81h4.64c0.73,0,1.4,0.08,2,0.25c0.6,0.17,1.12,0.44,1.55,0.82
		s0.76,0.88,1,1.51c0.24,0.63,0.35,1.39,0.35,2.3V410.84z M68.14,407.58c0-0.54-0.11-0.94-0.34-1.22c-0.23-0.28-0.63-0.42-1.2-0.42
		h-1.3v6.68h1.19c0.61,0,1.04-0.14,1.28-0.42c0.24-0.28,0.37-0.74,0.37-1.37V407.58z"/>
	<path class="st0" d="M82.59,415.32l-2.08,7.18h-3.27l1.96-6.79l-4.05-13h3.67l2.03,8.3l2.23-8.3h3.27L82.59,415.32z"/>
	<path class="st0" d="M100.49,416.79c0,1.2-0.1,2.21-0.29,3.02c-0.19,0.81-0.5,1.47-0.91,1.97c-0.41,0.5-0.94,0.86-1.58,1.07
		c-0.64,0.22-1.41,0.32-2.3,0.32c-0.77,0-1.47-0.1-2.09-0.3c-0.62-0.2-1.15-0.52-1.59-0.96c-0.44-0.44-0.77-1-1.01-1.69
		c-0.24-0.69-0.35-1.53-0.35-2.52v-1.28h3.33v1.48c0,0.66,0.15,1.17,0.45,1.52c0.3,0.36,0.72,0.54,1.26,0.54
		c0.3,0,0.56-0.04,0.78-0.12c0.22-0.08,0.4-0.22,0.54-0.42c0.14-0.2,0.25-0.46,0.32-0.78c0.07-0.32,0.11-0.72,0.11-1.2v-1.11
		c0-0.39-0.05-0.73-0.16-0.99c-0.11-0.27-0.25-0.49-0.44-0.66c-0.18-0.17-0.39-0.29-0.62-0.37c-0.23-0.08-0.47-0.12-0.73-0.13
		L94,414.18v-3.07l1.33-0.04c0.26,0,0.5-0.03,0.71-0.1c0.21-0.07,0.39-0.19,0.53-0.37c0.14-0.18,0.25-0.44,0.32-0.77
		c0.08-0.33,0.11-0.76,0.11-1.28v-0.79c0-0.36-0.02-0.69-0.06-0.99c-0.04-0.3-0.12-0.56-0.23-0.77c-0.11-0.21-0.27-0.38-0.49-0.49
		c-0.21-0.12-0.49-0.18-0.83-0.18c-0.58,0-0.99,0.19-1.22,0.57c-0.23,0.38-0.35,0.89-0.35,1.53v1.45h-3.35v-1.27
		c0-0.9,0.09-1.7,0.28-2.39c0.18-0.69,0.47-1.27,0.88-1.73c0.4-0.46,0.91-0.81,1.55-1.04c0.63-0.23,1.39-0.35,2.29-0.35
		c0.84,0,1.56,0.11,2.18,0.34c0.62,0.23,1.12,0.58,1.52,1.05c0.4,0.47,0.7,1.08,0.89,1.81c0.19,0.73,0.29,1.61,0.29,2.62
		c0,0.78-0.04,1.44-0.13,1.97c-0.08,0.54-0.21,0.98-0.38,1.33c-0.17,0.35-0.38,0.63-0.64,0.85c-0.26,0.21-0.56,0.38-0.91,0.5
		c0.44,0.12,0.81,0.32,1.09,0.58c0.29,0.26,0.51,0.58,0.68,0.96c0.16,0.38,0.28,0.79,0.34,1.25
		C100.46,415.81,100.49,416.29,100.49,416.79z"/>
	<path class="st0" d="M113.25,422.5l0.11-12.25l-3.61,12.25h-3.8l0.03-19.81h3.35l-0.11,11.83l3.29-11.83h4.09v19.81H113.25z"/>
	<path class="st0" d="M122.11,422.5v-19.81h3.35v8.19h3.36v-8.19h3.36v19.81h-3.36v-8.36h-3.36v8.36H122.11z"/>
	<path class="st0" d="M147,416.14v1.3c0,0.72-0.07,1.4-0.22,2.04s-0.4,1.2-0.77,1.68s-0.86,0.87-1.49,1.16
		c-0.63,0.29-1.42,0.43-2.38,0.43c-0.01,0-0.01,0-0.01,0.01c-0.98,0-1.78-0.15-2.41-0.44c-0.63-0.29-1.12-0.69-1.49-1.18
		c-0.37-0.5-0.62-1.08-0.76-1.75c-0.14-0.67-0.21-1.38-0.21-2.14v-9.33c0-0.76,0.07-1.48,0.22-2.14s0.4-1.25,0.77-1.76
		c0.37-0.5,0.86-0.9,1.49-1.18c0.63-0.29,1.42-0.43,2.39-0.43s1.77,0.15,2.39,0.44c0.63,0.29,1.12,0.68,1.49,1.17
		c0.37,0.49,0.62,1.06,0.77,1.71c0.15,0.65,0.22,1.33,0.22,2.04v1.27h-3.35v-1.25c0-0.25-0.02-0.51-0.05-0.76
		c-0.03-0.25-0.1-0.48-0.21-0.68c-0.11-0.2-0.26-0.37-0.47-0.49c-0.2-0.13-0.47-0.19-0.81-0.19c-0.33,0-0.6,0.07-0.8,0.2
		c-0.2,0.14-0.36,0.31-0.46,0.52c-0.1,0.21-0.17,0.45-0.2,0.73c-0.03,0.27-0.05,0.55-0.05,0.83v9.32c0,0.27,0.01,0.54,0.04,0.81
		c0.03,0.27,0.1,0.51,0.2,0.73s0.26,0.39,0.46,0.53c0.2,0.14,0.47,0.2,0.8,0.2c0.32,0,0.58-0.06,0.78-0.18
		c0.2-0.12,0.35-0.27,0.47-0.47c0.11-0.2,0.19-0.42,0.23-0.68s0.06-0.51,0.06-0.78v-1.28H147z"/>
	<path class="st0" d="M151.83,422.5v-19.81h3.35v8.19h1.03l2.72-8.18h3.57l-3.2,9.64l3.44,10.15h-3.57l-2.87-8.36h-1.13v8.36H151.83
		z"/>
	<path class="st0" d="M169.05,402.68h4.46l3.32,19.82h-3.37l-0.45-3.3h-3.43l-0.45,3.3h-3.37L169.05,402.68z M169.98,416.14h2.6
		l-1.3-9.46L169.98,416.14z"/>
	<path class="st0" d="M187.17,422.5v-7.56h-0.89c-0.2,0-0.39,0.04-0.59,0.11c-0.19,0.08-0.37,0.21-0.54,0.39
		c-0.17,0.19-0.31,0.44-0.43,0.76c-0.12,0.32-0.2,0.72-0.23,1.21l-0.21,2.72c-0.02,0.27-0.06,0.54-0.11,0.8
		c-0.06,0.26-0.12,0.49-0.19,0.7c-0.07,0.21-0.14,0.39-0.2,0.54c-0.07,0.15-0.11,0.25-0.14,0.31h-3.46c0.14-0.3,0.29-0.64,0.44-1.03
		c0.16-0.39,0.26-0.85,0.3-1.41l0.21-2.72c0.05-0.53,0.1-0.97,0.17-1.35c0.07-0.37,0.16-0.69,0.28-0.96
		c0.12-0.27,0.27-0.5,0.44-0.69c0.18-0.19,0.4-0.38,0.66-0.56c-0.56-0.44-1.03-0.98-1.4-1.61c-0.37-0.63-0.55-1.37-0.55-2.19v-2.2
		c0-0.9,0.1-1.67,0.3-2.31c0.2-0.64,0.51-1.16,0.91-1.57c0.4-0.41,0.91-0.71,1.52-0.9c0.61-0.19,1.33-0.29,2.15-0.29h4.9v19.79
		H187.17z M184.09,409.98c-0.01,0.49,0.11,0.9,0.37,1.23c0.25,0.33,0.66,0.49,1.21,0.49h1.5v-5.75h-1.52
		c-0.53,0-0.92,0.12-1.17,0.37c-0.25,0.25-0.38,0.73-0.38,1.43V409.98z"/>
	<path class="st0" d="M203.37,422.5v-19.81h3.35v8.19h1.03l2.72-8.18h3.57l-3.2,9.64l3.44,10.15h-3.57l-2.87-8.36h-1.13v8.36H203.37
		z"/>
	<path class="st0" d="M225.05,415.32l-2.08,7.18h-3.27l1.96-6.79l-4.05-13h3.67l2.03,8.3l2.23-8.3h3.27L225.05,415.32z"/>
	<path class="st0" d="M239.54,422.5l-2.31-6.86l-2.15,6.86h-3.71l3.7-10.25l-3.39-9.56h3.67l2,6.13l1.98-6.13h3.66l-3.47,9.56
		l3.73,10.25H239.54z"/>
	<path class="st0" d="M247.34,422.5v-19.81h3.35v8.19h3.36v-8.19h3.36v19.81h-3.36v-8.36h-3.36v8.36H247.34z"/>
	<path class="st0" d="M269.44,422.5v-7.56h-0.89c-0.2,0-0.39,0.04-0.59,0.11c-0.19,0.08-0.37,0.21-0.54,0.39
		c-0.17,0.19-0.31,0.44-0.43,0.76c-0.12,0.32-0.2,0.72-0.23,1.21l-0.21,2.72c-0.02,0.27-0.06,0.54-0.11,0.8
		c-0.06,0.26-0.12,0.49-0.19,0.7s-0.14,0.39-0.2,0.54c-0.07,0.15-0.11,0.25-0.14,0.31h-3.46c0.14-0.3,0.29-0.64,0.44-1.03
		c0.16-0.39,0.26-0.85,0.3-1.41l0.21-2.72c0.05-0.53,0.1-0.97,0.17-1.35c0.07-0.37,0.16-0.69,0.28-0.96
		c0.12-0.27,0.27-0.5,0.44-0.69c0.18-0.19,0.4-0.38,0.66-0.56c-0.56-0.44-1.03-0.98-1.4-1.61c-0.37-0.63-0.55-1.37-0.55-2.19v-2.2
		c0-0.9,0.1-1.67,0.3-2.31c0.2-0.64,0.51-1.16,0.91-1.57s0.91-0.71,1.52-0.9c0.61-0.19,1.33-0.29,2.15-0.29h4.9v19.79H269.44z
		 M266.36,409.98c-0.01,0.49,0.11,0.9,0.37,1.23c0.25,0.33,0.66,0.49,1.21,0.49h1.5v-5.75h-1.52c-0.53,0-0.92,0.12-1.17,0.37
		c-0.25,0.25-0.38,0.73-0.38,1.43V409.98z"/>
</g>
<g>
	<g>
		<path class="st1" d="M66.9,381.21H50.12v-82.25h-9.8c-0.04,0-0.08-0.01-0.1-0.04c-3-2.68-1.14-6.05,1.51-6.05h35.72
			c0.04,0,0.08,0.01,0.1,0.04c3,2.68,1.14,6.05-1.51,6.05H66.9V381.21z M56.22,375.11h4.58v-76.15h-4.58V375.11z"/>
	</g>
	<g>
		<path class="st1" d="M227.22,381.21c-0.15,0-0.3,0-0.45-0.01c-10.89-0.24-19.76-9.29-19.76-20.17v-17.81
			c0-6.22,3.23-12.09,8.65-15.15c4.99-2.81,10.16-3.76,14.98-2.92v-24.17c0-0.14-0.05-0.28-0.15-0.38
			c-2.98-3.24-6.71-1.15-6.71,1.79v20.18h-16.78v-11.29c0-6.18,3.22-11.97,8.57-15.09c15.69-9.15,31.85,2.01,31.85,16.87v47.98
			C247.43,372.15,238.36,381.21,227.22,381.21z M227.22,375.11c1.85,0,3.39-1.51,3.43-3.37c0-0.05,0-0.09,0.01-0.14v-37.24
			c0-2.94-3.73-5.03-6.71-1.79c-0.1,0.1-0.15,0.24-0.15,0.38v38.72c0,1.83,1.44,3.32,3.24,3.42L227.22,375.11z M236.75,371.4
			c2.81-2.58,4.58-6.28,4.58-10.38v-47.98c0-4.1-1.76-7.8-4.58-10.38V371.4z M217.69,334.66c-2.81,2.58-4.58,6.28-4.58,10.38v15.99
			c0,4.06,1.77,7.75,4.58,10.34V334.66z M213.11,316.47h4.58v-13.8c-2.81,2.58-4.58,6.28-4.58,10.38V316.47z"/>
	</g>
	<g>
		<path class="st1" d="M101.78,381.21c-0.15,0-0.3,0-0.45-0.01c-10.89-0.24-19.76-9.29-19.76-20.17v-17.81
			c0-6.22,3.23-12.09,8.65-15.15c4.99-2.81,10.16-3.76,14.98-2.92v-24.17c0-0.14-0.05-0.28-0.15-0.38
			c-2.98-3.24-6.71-1.15-6.71,1.79v20.18H81.58v-11.29c0-6.18,3.22-11.97,8.57-15.09c15.69-9.15,31.85,2.01,31.85,16.87v47.98
			C121.99,372.15,112.93,381.21,101.78,381.21z M101.78,375.11c1.85,0,3.39-1.51,3.43-3.37c0-0.05,0-0.09,0.01-0.14v-37.24
			c0-2.94-3.73-5.03-6.71-1.79c-0.1,0.1-0.15,0.24-0.15,0.38l0,38.72c0,1.83,1.44,3.32,3.24,3.42L101.78,375.11z M111.31,371.4
			c2.81-2.58,4.58-6.28,4.58-10.38v-47.98c0-4.1-1.76-7.8-4.58-10.38V371.4z M92.25,334.66c-2.81,2.58-4.58,6.28-4.58,10.38v15.99
			c0,4.06,1.77,7.75,4.58,10.34V334.66z M87.68,316.47h4.58v-13.8c-2.81,2.58-4.58,6.28-4.58,10.38V316.47z"/>
	</g>
	<g>
		<path class="st1" d="M272.78,381.21h-16.78V310c0-9.46,7.68-17.13,17.16-17.13h6.11c9.47,0,17.15,7.67,17.15,17.13v19.34
			c0,6.22-3.23,12.09-8.65,15.15c-4.99,2.81-10.16,3.76-14.98,2.92V381.21z M262.11,375.11h4.58v-72.44
			c-2.81,2.58-4.58,6.28-4.58,10.38V375.11z M276.21,298.96c-0.57,0-3.43,0.13-3.43,2.67l0,37.96c0,0.14,0.05,0.28,0.15,0.38
			c2.98,3.24,6.71,1.15,6.71-1.79v-36.55C279.64,299.09,276.79,298.96,276.21,298.96z M285.74,302.67v35.22
			c2.81-2.58,4.58-6.28,4.58-10.38v-14.47C290.32,308.95,288.56,305.25,285.74,302.67z"/>
	</g>
	<g>
		<path class="st1" d="M198.43,381.21h-16.78v-80.23c0-0.14-0.05-0.28-0.15-0.38c-2.98-3.24-6.71-1.15-6.71,1.79v45.31h-20.59
			v-46.72c0-0.14-0.05-0.28-0.15-0.38c-2.98-3.24-6.71-1.15-6.71,1.79v78.82h-16.78v-68.16c0-11.13,9.06-20.18,20.21-20.18
			c5.09,0,10.01,1.97,13.73,5.4c3.71-3.43,8.63-5.4,13.73-5.4c11.14,0,20.21,9.05,20.21,20.18V381.21z M187.76,375.11h4.58v-62.07
			c0-4.1-1.76-7.8-4.58-10.38V375.11z M136.67,375.11h4.58v-72.44c-2.81,2.58-4.58,6.28-4.58,10.38V375.11z M160.31,341.61h8.39
			v-38.91c-0.74,0.68-1.41,1.44-2,2.27c-0.02,0.03-0.04,0.05-0.07,0.08c-1.56,1.3-3.56,0.92-4.56-0.41
			c-0.53-0.7-1.12-1.35-1.75-1.93V341.61z"/>
	</g>
</g>
</svg>
