<?xml version="1.0" encoding="utf-8"?>
<!-- Generator: Adobe Illustrator 23.0.1, SVG Export Plug-In . SVG Version: 6.00 Build 0)  -->
<svg version="1.1" id="Capa_1" xmlns="http://www.w3.org/2000/svg" xmlns:xlink="http://www.w3.org/1999/xlink" x="0px" y="0px"
	 viewBox="0 0 488 488" style="enable-background:new 0 0 488 488;" xml:space="preserve">
<style type="text/css">
	.st0{fill:#9B3736;}
</style>
<g>
	<g>
		<path class="st0" d="M450.41,168.65C461.21,158.43,468,144.01,468,128c0-30.88-25.12-56-56-56s-56,25.12-56,56
			c0,19.65,10.19,36.94,25.54,46.93C370.97,182.14,364,194.26,364,208v56h-32v-40c0-28.62-21.6-52.27-49.36-55.57
			C293.31,158.23,300,143.9,300,128c0-30.88-25.12-56-56-56s-56,25.12-56,56c0,15.9,6.69,30.23,17.36,40.43
			C177.6,171.73,156,195.38,156,224v40h-32v-56c0-13.74-6.97-25.86-17.54-33.07C121.81,164.94,132,147.65,132,128
			c0-30.88-25.12-56-56-56s-56,25.12-56,56c0,16.01,6.79,30.43,17.59,40.65C18.59,171.74,4,188.14,4,208v120
			c0,19.31,13.77,35.47,32,39.19V488h16V368h72v112c0,4.42,3.58,8,8,8h48c4.42,0,8-3.58,8-8V352h48v120h-32v16h80v-16h-32V352h48
			v128c0,4.42,3.58,8,8,8h48c4.42,0,8-3.58,8-8V368h72v120h16V367.19c18.23-3.72,32-19.87,32-39.19V208
			C484,188.14,469.41,171.74,450.41,168.65z M372,128c0-22.06,17.94-40,40-40s40,17.94,40,40s-17.94,40-40,40S372,150.06,372,128z
			 M204,128c0-22.06,17.94-40,40-40s40,17.94,40,40s-17.94,40-40,40S204,150.06,204,128z M256.46,184L244,217.22L231.54,184H256.46z
			 M172,224c0-22.06,17.94-40,40-40h2.46l22.06,58.81c1.17,3.12,4.15,5.19,7.49,5.19s6.32-2.07,7.5-5.19L273.54,184H276
			c22.06,0,40,17.94,40,40v40h-32c-4.42,0-8,3.58-8,8v32h-64v-32c0-4.42-3.58-8-8-8h-32V224z M36,128c0-22.06,17.94-40,40-40
			s40,17.94,40,40s-17.94,40-40,40S36,150.06,36,128z M172,472h-32V360c0-4.42-3.58-8-8-8H44c-13.23,0-24-10.77-24-24V208
			c0-13.23,10.77-24,24-24h40c13.23,0,24,10.77,24,24v64c0,4.42,3.58,8,8,8h80v24H84v-72H68v80c0,4.42,3.58,8,8,8h72
			c13.23,0,24,10.77,24,24V472z M300.9,336H187.1c-1.21-5.9-3.63-11.35-7.12-16H204h80h24.02C304.53,324.65,302.1,330.1,300.9,336z
			 M468,328c0,13.23-10.77,24-24,24h-88c-4.42,0-8,3.58-8,8v112h-32V344c0-13.23,10.77-24,24-24h72c4.42,0,8-3.58,8-8v-80h-16v72
			H292v-24h80c4.42,0,8-3.58,8-8v-64c0-13.23,10.77-24,24-24h40c13.23,0,24,10.77,24,24V328z"/>
	</g>
</g>
<g>
	<g>
		<rect x="236" y="264" class="st0" width="16" height="16"/>
	</g>
</g>
<g>
	<g>
		<path class="st0" d="M204,0H92c-4.42,0-8,3.58-8,8v40c0,4.42,3.58,8,8,8h32v16c0,3.03,1.71,5.8,4.42,7.16
			c1.13,0.56,2.36,0.84,3.58,0.84c1.7,0,3.38-0.54,4.8-1.6L166.66,56H204c4.42,0,8-3.58,8-8V8C212,3.58,208.42,0,204,0z M196,40h-32
			c-1.73,0-3.42,0.56-4.8,1.6L140,56v-8c0-4.42-3.58-8-8-8h-32V16h96V40z"/>
	</g>
</g>
<g>
	<g>
		<rect x="284" y="24" class="st0" width="16" height="16"/>
	</g>
</g>
<g>
	<g>
		<rect x="316" y="24" class="st0" width="16" height="16"/>
	</g>
</g>
<g>
	<g>
		<rect x="348" y="24" class="st0" width="16" height="16"/>
	</g>
</g>
</svg>
