<?xml version="1.0" encoding="utf-8"?>
<!-- Generator: Adobe Illustrator 23.0.1, SVG Export Plug-In . SVG Version: 6.00 Build 0)  -->
<svg version="1.1" id="Слой_1" xmlns="http://www.w3.org/2000/svg" xmlns:xlink="http://www.w3.org/1999/xlink" x="0px" y="0px"
	 viewBox="0 0 76 76" style="enable-background:new 0 0 76 76;" xml:space="preserve">
<style type="text/css">
	.st0{fill:#9B3736;}
</style>
<g>
	<g>
		<path class="st0" d="M70.09,29.94c1.38-1.34,1.86-3.31,1.27-5.14c-0.59-1.83-2.14-3.13-4.05-3.41l-16.63-2.42
			c-0.33-0.05-0.61-0.25-0.75-0.55L42.49,3.36C41.64,1.64,39.92,0.57,38,0.57s-3.64,1.07-4.49,2.79l-7.44,15.07
			c-0.15,0.3-0.43,0.5-0.75,0.55L8.69,21.39c-1.9,0.28-3.45,1.58-4.05,3.41s-0.11,3.8,1.27,5.14l12.03,11.73
			c0.24,0.23,0.34,0.56,0.29,0.89l-2.84,16.56c-0.32,1.89,0.44,3.77,1.99,4.9c1.55,1.13,3.58,1.28,5.28,0.38l14.87-7.82
			c0.29-0.15,0.64-0.15,0.93,0l14.87,7.82c0.74,0.39,1.54,0.58,2.34,0.58c1.03,0,2.06-0.32,2.94-0.96c1.55-1.13,2.32-3.01,1.99-4.9
			l-2.84-16.56c-0.06-0.33,0.05-0.66,0.29-0.89L70.09,29.94z M53.82,43.24l2.84,16.56c0.1,0.55-0.25,0.87-0.4,0.98
			c-0.15,0.11-0.56,0.34-1.06,0.08l-14.87-7.82c-0.73-0.38-1.53-0.58-2.33-0.58c-0.8,0-1.6,0.19-2.33,0.58l-14.87,7.82
			c-0.5,0.26-0.9,0.03-1.06-0.08s-0.49-0.43-0.4-0.98l2.84-16.56c0.28-1.63-0.26-3.28-1.44-4.44L8.71,27.07
			c-0.4-0.39-0.31-0.85-0.25-1.03c0.06-0.18,0.25-0.6,0.81-0.68l16.63-2.42c1.63-0.24,3.04-1.26,3.77-2.74L37.1,5.13
			c0.25-0.5,0.71-0.56,0.9-0.56c0.19,0,0.65,0.05,0.9,0.56v0l7.44,15.07c0.73,1.48,2.14,2.5,3.77,2.74l16.63,2.42
			c0.56,0.08,0.75,0.5,0.81,0.68c0.06,0.18,0.15,0.64-0.25,1.03L55.26,38.8C54.08,39.95,53.54,41.61,53.82,43.24z"/>
	</g>
</g>
<g>
	<g>
		<path class="st0" d="M61.42,3.36c-0.9-0.65-2.15-0.45-2.8,0.44l-2.13,2.93c-0.65,0.9-0.45,2.15,0.44,2.8
			c0.36,0.26,0.77,0.38,1.18,0.38c0.62,0,1.23-0.29,1.62-0.83l2.13-2.93C62.52,5.26,62.32,4.01,61.42,3.36z"/>
	</g>
</g>
<g>
	<g>
		<path class="st0" d="M19.5,6.72l-2.13-2.93c-0.65-0.9-1.9-1.09-2.8-0.44c-0.9,0.65-1.09,1.9-0.44,2.8l2.13,2.93
			c0.39,0.54,1,0.83,1.62,0.83c0.41,0,0.82-0.12,1.18-0.38C19.95,8.87,20.15,7.61,19.5,6.72z"/>
	</g>
</g>
<g>
	<g>
		<path class="st0" d="M7.36,45.54c-0.34-1.05-1.47-1.63-2.53-1.29l-3.44,1.12c-1.05,0.34-1.63,1.47-1.29,2.53
			c0.28,0.85,1.06,1.39,1.91,1.39c0.21,0,0.41-0.03,0.62-0.1l3.44-1.12C7.12,47.73,7.7,46.6,7.36,45.54z"/>
	</g>
</g>
<g>
	<g>
		<path class="st0" d="M38,67.8c-1.11,0-2,0.9-2,2v3.62c0,1.11,0.9,2,2,2c1.11,0,2-0.9,2-2v-3.62C40.01,68.7,39.11,67.8,38,67.8z"/>
	</g>
</g>
<g>
	<g>
		<path class="st0" d="M74.61,45.38l-3.44-1.12c-1.05-0.34-2.18,0.23-2.53,1.29c-0.34,1.05,0.23,2.18,1.29,2.53l3.44,1.12
			c0.21,0.07,0.41,0.1,0.62,0.1c0.85,0,1.63-0.54,1.91-1.39C76.24,46.85,75.67,45.72,74.61,45.38z"/>
	</g>
</g>
</svg>
